<svg width="100" height="39" viewBox="0 0 100 39" fill="none" xmlns="http://www.w3.org/2000/svg">
<g filter="url(#filter0_dd_13232_1285)">
<rect x="29.4062" y="2.11877" width="9.05914" height="6.5306" fill="#7F56D9"/>
<path fill-rule="evenodd" clip-rule="evenodd" d="M3 34.1187V2.2019H26.0596V9.18371H24.3722V14.6694H24.3729V21.6512H11.9036V34.1187H3ZM69.5859 34.1187V2.2019H83.742C86.1761 2.2019 88.3059 2.63307 90.1314 3.49541C91.957 4.35774 93.3769 5.5993 94.391 7.22008C95.4052 8.84085 95.9123 10.7837 95.9123 13.0486C95.9123 15.3343 95.3892 17.2616 94.343 18.8304C93.3764 20.2948 92.0424 21.4242 90.3411 22.2187L97.0013 34.1187H87.329L81.5709 23.5837H78.4895V34.1187H69.5859ZM50.4671 14.527L54.0661 20.5984L57.8578 14.527H66.6624L60.0429 24.3229L66.9838 34.1188H58.2435L54.0661 27.8943L50.0173 34.1188H41.1484L48.1535 24.3229L41.5983 14.527H50.4671ZM29.4648 10.1811V34.1188H38.3044V10.1811H29.4648Z" fill="#7F56D9"/>
<path fill-rule="evenodd" clip-rule="evenodd" d="M20.7186 14.5269C19.6506 16.5739 17.4667 17.9767 14.9462 17.9767C12.2269 17.9767 9.89948 16.344 8.9424 14.031H15.9814V14.0299L18.1801 11.6384L15.9814 9.33079V9.32975H15.9804H15.9804H8.94238C9.89945 7.01671 12.2269 5.38403 14.9462 5.38403C17.3903 5.38403 19.5178 6.70294 20.6183 8.64932H76.1666C77.2672 6.70294 79.3947 5.38403 81.8388 5.38403C84.558 5.38403 86.8855 7.01671 87.8426 9.32975H80.8046H80.8036V9.33079L78.6049 11.6384L80.8036 14.0299V14.031H87.8426C86.8855 16.344 84.558 17.9767 81.8388 17.9767C79.3182 17.9767 77.1343 16.5739 76.0664 14.5269H20.7186Z" fill="white"/>
</g>
<defs>
<filter id="filter0_dd_13232_1285" x="0" y="0" width="100.001" height="38.1188" filterUnits="userSpaceOnUse" color-interpolation-filters="sRGB">
<feFlood flood-opacity="0" result="BackgroundImageFix"/>
<feColorMatrix in="SourceAlpha" type="matrix" values="0 0 0 0 0 0 0 0 0 0 0 0 0 0 0 0 0 0 127 0" result="hardAlpha"/>
<feOffset dy="1"/>
<feGaussianBlur stdDeviation="1"/>
<feColorMatrix type="matrix" values="0 0 0 0 0.0627451 0 0 0 0 0.0941176 0 0 0 0 0.156863 0 0 0 0.06 0"/>
<feBlend mode="normal" in2="BackgroundImageFix" result="effect1_dropShadow_13232_1285"/>
<feColorMatrix in="SourceAlpha" type="matrix" values="0 0 0 0 0 0 0 0 0 0 0 0 0 0 0 0 0 0 127 0" result="hardAlpha"/>
<feOffset dy="1"/>
<feGaussianBlur stdDeviation="1.5"/>
<feColorMatrix type="matrix" values="0 0 0 0 0.0627451 0 0 0 0 0.0941176 0 0 0 0 0.156863 0 0 0 0.1 0"/>
<feBlend mode="normal" in2="effect1_dropShadow_13232_1285" result="effect2_dropShadow_13232_1285"/>
<feBlend mode="normal" in="SourceGraphic" in2="effect2_dropShadow_13232_1285" result="shape"/>
</filter>
</defs>
</svg>
