<svg xmlns="http://www.w3.org/2000/svg" viewBox="0 0 64 64" width="64" height="64">
    <path
        d="M62.9,1.1c-1.5-1.5-3.9-1.5-5.4,0L45.5,13.1c-1.5,1.5-1.5,3.9,0,5.4c1.5,1.5,3.9,1.5,5.4,0l12-12C64.4,5,64.4,2.6,62.9,1.1z M22.6,23.4c-1.5-1.5-3.9-1.5-5.4,0L5.2,35.4c-1.5,1.5-1.5,3.9,0,5.4c1.5,1.5,3.9,1.5,5.4,0l12-12C24.1,27.3,24.1,24.9,22.6,23.4z M41.4,42.6c-1.5-1.5-3.9-1.5-5.4,0L24.6,54.6c-1.5,1.5-1.5,3.9,0,5.4c1.5,1.5,3.9,1.5,5.4,0l12-12C42.9,46.5,42.9,44.1,41.4,42.6z M1.1,62.9c-1.5-1.5-1.5-3.9,0-5.4l12-12c1.5-1.5,3.9-1.5,5.4,0c1.5,1.5,1.5,3.9,0,5.4l-12,12C5,64.4,2.6,64.4,1.1,62.9z" />
</svg>